<svg xmlns="http://www.w3.org/2000/svg" width="48" height="48" viewBox="0 0 48 48">
  <title>arrow-block-left</title>
  <g id="Layer_2" data-name="Layer 2">
    <g id="invisible_box" data-name="invisible box">
      <rect width="48" height="48" fill="none"/>
    </g>
    <g id="Q3_icons" data-name="Q3 icons">
      <path d="M23.6,20.1H38v7.8H23.6v9.6L9,24l14.6-13.5v9.6zm2-16.1a2.2,2.2,0,00-1.5.6L4.6,22.5a2.2,2.2,0,000,3l19.5,17.9a2.2,2.2,0,001.5.6,2,2,0,002-2V31.9H40a2,2,0,002-2V18.1a2,2,0,00-2-2H27.6V6a2,2,0,00-2-2z"/>
    </g>
  </g>
</svg>
