<svg xmlns="http://www.w3.org/2000/svg" width="48" height="48" viewBox="0 0 48 48">
  <title>arrow-block-left</title>
  <g id="Layer_2" data-name="Layer 2">
    <g id="invisible_box" data-name="invisible box">
      <rect width="48" height="48" fill="none"/>
    </g>
    <g id="Q3_icons" data-name="Q3 icons">
      <path d="M23.6 20.1H38v7.8H23.6v9.6L9 24l14.6-13.5v9.6zm2-16.1c-.557998.002534-1.094185.217009-1.5.6L4.6 22.5c-.787536.844947-.787536 2.155053 0 3l19.5 17.9c.405815.382991.942002.597466 1.5.6 1.10457 0 2-.89543 2-2V31.9H40c1.10457 0 2-.89543 2-2V18.1c0-1.10457-.89543-2-2-2H27.6V6c0-1.10457-.89543-2-2-2z"/>
    </g>
  </g>
</svg>
