<?xml version="1.0" encoding="utf-8"?>
<!-- Generator: Adobe Illustrator 26.0.3, SVG Export Plug-In . SVG Version: 6.00 Build 0)  -->
<svg version="1.1" id="Layer_1" xmlns="http://www.w3.org/2000/svg" xmlns:xlink="http://www.w3.org/1999/xlink" x="0px" y="0px"
	 viewBox="0 0 48 48" style="enable-background:new 0 0 48 48;" xml:space="preserve">
<path id="Layer_2_00000149376200204339294350000000662191906821144204_" d="M5,32h7c1.6,0.1,2.9-1.2,3-2.8c0-0.1,0-0.1,0-0.2v-1
	c0-1.5-0.6-2.9-1.5-4c0.9-1.1,1.5-2.5,1.5-4v-1c0.1-1.6-1.2-2.9-2.8-3c-0.1,0-0.1,0-0.2,0H5c-1.6-0.1-2.9,1.2-3,2.8
	c0,0.1,0,0.1,0,0.2v10c-0.1,1.6,1.2,2.9,2.8,3C4.9,32,4.9,32,5,32z M6,20h5c0,1.1-0.9,2-2,2H6V20z M6,26h3c1.1,0,2,0.9,2,2H6V26z
	 M30,32V19c0.1-1.6-1.2-2.9-2.8-3c-0.1,0-0.1,0-0.2,0h-6c-1.6-0.1-2.9,1.2-3,2.8c0,0.1,0,0.1,0,0.2v13h4v-6h4v6H30z M22,22v-2h4v2
	H22z M2,37c0,1.1,0.9,2,2,2h40c1.1,0,2-0.9,2-2v-2H2V37z M44,9H4c-1.1,0-2,0.9-2,2v2h44v-2C46,9.9,45.1,9,44,9z M34,19v4
	c-0.1,1.6,1.2,2.9,2.8,3c0.1,0,0.1,0,0.2,0h5v2h-8v4h9c1.6,0.1,2.9-1.2,3-2.8c0-0.1,0-0.1,0-0.2v-4c0.1-1.6-1.2-2.9-2.8-3
	c-0.1,0-0.1,0-0.2,0h-5v-2h8v-4h-9c-1.6-0.1-2.9,1.2-3,2.8C34,18.9,34,18.9,34,19z"/>
</svg>
