<svg xmlns="http://www.w3.org/2000/svg" width="48" height="48" viewBox="0 0 48 48">
  <g id="Layer_2" data-name="Layer 2">
    <g id="invisible_box" data-name="invisible box">
      <rect width="48" height="48" fill="none"/>
    </g>
    <g id="Icons">
      <g>
        <path d="M42,22H38V18a1.7,1.7,0,0,0-.6-1.4A2,2,0,0,0,36,16a2,2,0,0,0-2,2v4H30a2,2,0,0,0-1.4.6A1.7,1.7,0,0,0,28,24a2,2,0,0,0,2,2h4v4a1.7,1.7,0,0,0,.6,1.4A2,2,0,0,0,36,32a2,2,0,0,0,2-2V26h4a2,2,0,0,0,1.4-.6A1.7,1.7,0,0,0,44,24,2,2,0,0,0,42,22Z"/>
        <path d="M36,36a2,2,0,0,0-2,2v2H24V8H34v2a2,2,0,0,0,4,0V7a2.9,2.9,0,0,0-3-3H9A2.9,2.9,0,0,0,6,7V41a2.9,2.9,0,0,0,3,3H35a2.9,2.9,0,0,0,3-3V38A2,2,0,0,0,36,36ZM20,40H10V8H20Z"/>
      </g>
    </g>
  </g>
</svg>
