<svg xmlns="http://www.w3.org/2000/svg" width="48" height="48" viewBox="0 0 48 48">
  <g id="Layer_2" data-name="Layer 2">
    <g id="invisible_box" data-name="invisible box">
      <rect width="48" height="48" fill="none"/>
    </g>
    <g id="Icons">
      <g>
        <path d="M42,22H38V18a1.7,1.7,0,0,0-.6-1.4A2,2,0,0,0,36,16a2,2,0,0,0-2,2v4H30a2,2,0,0,0-1.4.6A1.7,1.7,0,0,0,28,24a2,2,0,0,0,2,2h4v4a1.7,1.7,0,0,0,.6,1.4A2,2,0,0,0,36,32a2,2,0,0,0,2-2V26h4a2,2,0,0,0,1.4-.6A1.7,1.7,0,0,0,44,24,2,2,0,0,0,42,22Z"/>
        <path d="M36,36H33a4,4,0,0,1-4-4V30H28a3.9,3.9,0,0,1-3.1-1.5.5.5,0,0,0-.9.3V44H35a2.9,2.9,0,0,0,3-3V38A2,2,0,0,0,36,36ZM35,4H24V19.2a.5.5,0,0,0,.9.3A3.9,3.9,0,0,1,28,18h2V16a4,4,0,0,1,4-4h2a2,2,0,0,0,2-2V7A2.9,2.9,0,0,0,35,4ZM6,7V41a2.9,2.9,0,0,0,3,3H20V4H9A2.9,2.9,0,0,0,6,7Z"/>
      </g>
    </g>
  </g>
</svg>
