<svg xmlns="http://www.w3.org/2000/svg" width="48" height="48" viewBox="0 0 48 48">
  <g id="Layer_2" data-name="Layer 2">
    <g id="invisible_box" data-name="invisible box">
      <rect width="48" height="48" fill="none"/>
    </g>
    <g id="Icons">
      <path d="M39.4,22.6a1.9,1.9,0,0,0-2.8,0,17,17,0,0,1-4.1,3.1l-3.9-9.2A7.7,7.7,0,0,0,32,10a8,8,0,0,0-16,0,8.3,8.3,0,0,0,3.4,6.6l-3.9,9.1a17,17,0,0,1-4.1-3.1,1.9,1.9,0,0,0-2.8,0,2.1,2.1,0,0,0,0,2.9,22.4,22.4,0,0,0,5.3,4l-3.2,7.4L9.6,45.4a.5.5,0,0,0,.9.3l6.8-14.8a18.8,18.8,0,0,0,4.7,1V33a2,2,0,0,0,4,0V31.9a20.5,20.5,0,0,0,4.8-1l6.7,14.8c.2.5,1,.3,1-.3l-1.2-8.6-3.2-7.3a25.5,25.5,0,0,0,5.3-4A2.1,2.1,0,0,0,39.4,22.6ZM24,6a4,4,0,1,1-4,4A4,4,0,0,1,24,6Zm2,21.8V27a2,2,0,0,0-4,0v.8a15.9,15.9,0,0,1-3-.6L23.1,18h1.8l4.2,9.3A17,17,0,0,1,26,27.8Z"/>
    </g>
  </g>
</svg>
