<?xml version="1.0" encoding="utf-8"?>
<!-- Generator: Adobe Illustrator 26.0.3, SVG Export Plug-In . SVG Version: 6.00 Build 0)  -->
<svg version="1.1" id="Layer_1" xmlns="http://www.w3.org/2000/svg" xmlns:xlink="http://www.w3.org/1999/xlink" x="0px" y="0px"
	 viewBox="0 0 48 48" style="enable-background:new 0 0 48 48;" xml:space="preserve">
<path id="Layer_2_00000024692467181907031690000013769168115181346176_" d="M39.4,22.6c-0.7-0.8-1.9-0.8-2.7-0.1
	c0,0-0.1,0.1-0.1,0.1c-1.2,1.2-2.6,2.3-4.1,3.1l-3.9-9.2C30.8,15,32,12.6,32,10c0-4.4-3.6-8-8-8s-8,3.6-8,8c0,2.6,1.3,5.1,3.4,6.6
	l-3.9,9.1c-1.5-0.8-2.9-1.9-4.1-3.1c-0.7-0.8-1.9-0.8-2.7-0.1c0,0-0.1,0.1-0.1,0.1c-0.8,0.8-0.8,2.1,0,2.9c1.6,1.6,3.3,2.9,5.3,4
	l-3.2,7.4l-1.1,8.5c0,0.3,0.2,0.5,0.5,0.5c0.2,0,0.3-0.1,0.4-0.2l6.8-14.8c1.5,0.5,3.1,0.9,4.7,1V33c0,1.1,0.9,2,2,2s2-0.9,2-2v-1.1
	c1.6-0.1,3.2-0.5,4.8-1l6.7,14.8c0.2,0.5,1,0.3,1-0.3l-1.2-8.6l-3.2-7.3c1.9-1.1,3.7-2.4,5.3-4C40.2,24.7,40.1,23.4,39.4,22.6z
	 M24,6c2.2,0,4,1.8,4,4s-1.8,4-4,4s-4-1.8-4-4S21.8,6,24,6z M26,27.8V27c0-1.1-0.9-2-2-2s-2,0.9-2,2v0.8c-1-0.1-2-0.3-3-0.6l4.1-9.2
	h1.8l4.2,9.3C28.1,27.6,27,27.7,26,27.8z"/>
</svg>
