<?xml version="1.0" encoding="utf-8"?>
<!-- Generator: Adobe Illustrator 26.0.3, SVG Export Plug-In . SVG Version: 6.00 Build 0)  -->
<svg version="1.1" id="Layer_1" xmlns="http://www.w3.org/2000/svg" xmlns:xlink="http://www.w3.org/1999/xlink" x="0px" y="0px"
	 viewBox="0 0 48 48" style="enable-background:new 0 0 48 48;" xml:space="preserve">
<path id="Layer_2_00000033340981939658816020000009436738994550842010_" d="M4.8,32c0.1,0,0.1,0,0.2,0h6c1.6,0.1,2.9-1.2,3-2.8
	c0-0.1,0-0.1,0-0.2v-7H8v4h2v2H6v-8h8v-4H5c-1.6-0.1-2.9,1.2-3,2.8c0,0.1,0,0.1,0,0.2v10C1.9,30.6,3.2,31.9,4.8,32z M30,32V19
	c0.1-1.6-1.2-2.9-2.8-3c-0.1,0-0.1,0-0.2,0h-6c-1.6-0.1-2.9,1.2-3,2.8c0,0.1,0,0.1,0,0.2v13h4v-6h4v6H30z M22,22v-2h4v2H22z
	 M34,18.8c0,0.1,0,0.1,0,0.2v10c-0.1,1.6,1.2,2.9,2.8,3c0.1,0,0.1,0,0.2,0h9v-4h-8v-8h8v-4h-9C35.4,15.9,34.1,17.2,34,18.8z M2,37
	c0,1.1,0.9,2,2,2h40c1.1,0,2-0.9,2-2v-2H2V37z M44,9H4c-1.1,0-2,0.9-2,2v2h44v-2C46,9.9,45.1,9,44,9z"/>
</svg>
