<?xml version="1.0" encoding="utf-8"?>
<!-- Generator: Adobe Illustrator 26.0.3, SVG Export Plug-In . SVG Version: 6.00 Build 0)  -->
<svg version="1.1" id="Layer_1" xmlns="http://www.w3.org/2000/svg" xmlns:xlink="http://www.w3.org/1999/xlink" x="0px" y="0px"
	 viewBox="0 0 48 48" style="enable-background:new 0 0 48 48;" xml:space="preserve">
<path id="Layer_2_00000032650765462054948870000012739153284219233699_" d="M29.3,28.2l1.8-2.9l-1.4-1.4l-2.9,1.8l-1-0.4L25,22h-2
	l-0.8,3.3l-1,0.4l-2.9-1.8l-1.4,1.4l1.8,2.9c-0.2,0.3-0.3,0.7-0.4,1L15,30v2l3.3,0.8c0.1,0.3,0.2,0.7,0.4,1l-1.8,2.9l1.4,1.4
	l2.9-1.8l1,0.4L23,40h2l0.8-3.3l1-0.4l2.9,1.8l1.4-1.4l-1.8-2.9c0.2-0.3,0.3-0.7,0.4-1L33,32v-2l-3.3-0.8
	C29.6,28.9,29.5,28.5,29.3,28.2z M24,33c-1.1,0-2-0.9-2-2s0.9-2,2-2s2,0.9,2,2C26,32.1,25.1,33,24,33z M2,10.8c0,0.1,0,0.1,0,0.2v10
	c-0.1,1.6,1.2,2.9,2.8,3c0.1,0,0.1,0,0.2,0h6c1.6,0.1,2.9-1.2,3-2.8c0-0.1,0-0.1,0-0.2v-7H8v4h2v2H6v-8h8V8H5
	C3.4,7.9,2.1,9.2,2,10.8z M22,18h4v3h4V11c0.1-1.6-1.2-2.9-2.8-3c-0.1,0-0.1,0-0.2,0h-6c-1.6-0.1-2.9,1.2-3,2.8c0,0.1,0,0.1,0,0.2
	v10h4V18z M22,12h4v2h-4V12z M46,12V8h-9c-1.6-0.1-2.9,1.2-3,2.8c0,0.1,0,0.1,0,0.2v10c-0.1,1.6,1.2,2.9,2.8,3c0.1,0,0.1,0,0.2,0h9
	v-4h-8v-8H46z"/>
</svg>
