<?xml version="1.0" encoding="utf-8"?>
<!-- Generator: Adobe Illustrator 26.0.3, SVG Export Plug-In . SVG Version: 6.00 Build 0)  -->
<svg version="1.1" id="Layer_1" xmlns="http://www.w3.org/2000/svg" xmlns:xlink="http://www.w3.org/1999/xlink" x="0px" y="0px"
	 viewBox="0 0 48 48" style="enable-background:new 0 0 48 48;" xml:space="preserve">
<path id="Layer_2_00000047763769382642877590000017799042452520953229_" d="M40,2H8C6.9,2,6,2.9,6,4v24.8c0,0.6,0.4,1,0.9,1.1
	c0.3,0,0.6-0.1,0.8-0.3l4.2-3.9l5.9,5.6l6.2-5.7l5.5,5.1c0.4,0.4,1,0.4,1.4,0l5.3-5.1l4.1,3.7c0.4,0.4,1,0.4,1.4,0
	c0.2-0.2,0.3-0.5,0.3-0.8V4C42,2.9,41.1,2,40,2z M32,21H16c-1.1,0-2-0.9-2-2s0.9-2,2-2h16c1.1,0,2,0.9,2,2S33.1,21,32,21z M32,13H16
	c-1.1,0-2-0.9-2-2s0.9-2,2-2h16c1.1,0,2,0.9,2,2S33.1,13,32,13z M35.4,29.8l-5.2,5l-5.5-5c-0.4-0.3-1-0.3-1.4,0l-5.4,5l-5.3-5
	c-0.4-0.3-1-0.3-1.4,0L6,34.7V44c0,1.1,0.9,2,2,2h32c1.1,0,2-0.9,2-2v-9.6l-5.2-4.6C36.4,29.5,35.8,29.5,35.4,29.8z"/>
</svg>
